<?xml version="1.0" standalone="no"?>
<!DOCTYPE svg PUBLIC "-//W3C//DTD SVG 20010904//EN"
 "http://www.w3.org/TR/2001/REC-SVG-20010904/DTD/svg10.dtd">
<svg version="1.0" xmlns="http://www.w3.org/2000/svg"
 width="1440.000000pt" height="1503.000000pt" viewBox="0 0 1440.000000 1503.000000"
 preserveAspectRatio="xMidYMid meet">

<g transform="translate(0.000000,1503.000000) scale(0.100000,-0.100000)"
fill="#000000" stroke="none">
<path d="M5948 13753 c-2 -225 -3 -444 -3 -487 l1 -79 46 -42 c48 -43 222
-158 436 -286 67 -41 172 -107 233 -146 61 -40 115 -73 121 -73 7 0 42 -21 80
-47 38 -27 95 -64 126 -84 l57 -36 3 -2133 c1 -1174 -1 -2137 -5 -2141 -5 -3
-20 -9 -35 -13 -28 -6 -28 -6 -30 46 l-1 53 -6 -54 c-5 -47 -9 -55 -36 -66
l-30 -14 35 7 c54 11 133 8 137 -4 2 -6 -41 -22 -104 -38 -176 -45 -233 -64
-198 -65 17 0 62 8 100 19 39 11 108 30 155 41 l85 22 88 -42 c79 -37 87 -44
82 -64 -5 -17 -4 -19 4 -7 9 13 18 11 68 -13 57 -28 72 -37 188 -113 33 -21
78 -46 100 -55 22 -8 79 -40 125 -71 96 -62 238 -147 290 -173 19 -10 37 -21
40 -25 3 -4 32 -19 65 -34 46 -21 56 -29 45 -36 -12 -8 -10 -10 9 -10 23 0
141 -59 141 -71 0 -3 -10 -11 -22 -17 -23 -10 -23 -11 5 -11 15 -1 27 3 27 9
0 6 10 5 25 -2 21 -9 25 -19 26 -57 1 -31 3 -37 6 -18 3 16 11 31 19 34 17 6
83 -26 194 -97 182 -114 234 -146 273 -169 149 -84 297 -177 315 -199 9 -12
12 -145 12 -589 0 -663 -18 -578 137 -663 340 -186 724 -391 738 -393 11 -2
12 27 1 96 -5 31 -4 47 3 47 7 0 10 48 9 143 -1 95 -3 127 -8 97 -4 -25 -8
273 -8 662 -2 544 1 709 10 714 13 8 71 7 101 -2 48 -15 47 -4 48 -931 0 -478
3 -876 5 -885 4 -13 16 -18 46 -18 l40 0 -6 193 c-11 378 -17 1462 -7 1476 14
21 37 6 45 -29 3 -18 6 -72 6 -120 0 -63 4 -91 14 -99 11 -9 15 -66 20 -259 3
-136 10 -308 15 -382 5 -74 14 -245 21 -380 6 -135 16 -294 21 -355 6 -60 13
-176 15 -256 l5 -146 -38 -26 c-21 -14 -73 -42 -116 -63 -85 -40 -120 -74
-115 -113 5 -43 49 -51 243 -45 180 6 231 15 239 42 18 56 56 345 56 421 0 74
3 91 15 91 8 0 15 5 15 10 0 6 -5 9 -12 8 -15 -4 -13 361 3 487 18 148 32 236
35 232 6 -6 63 -270 84 -387 10 -58 28 -148 39 -200 11 -52 21 -109 21 -126 0
-16 5 -35 10 -40 10 -10 15 -43 41 -239 11 -89 11 -91 -20 -173 -17 -46 -31
-101 -31 -122 0 -37 2 -39 36 -46 89 -17 244 20 256 60 7 24 -10 1192 -20
1331 -6 83 -13 232 -15 333 l-5 182 36 0 c36 0 103 -28 169 -71 18 -11 37 -18
43 -14 36 22 120 191 120 241 0 23 -42 53 -96 69 -74 21 -84 39 -84 152 l0 93
63 67 c114 122 116 130 61 279 -20 55 -45 126 -57 159 -53 155 -115 288 -156
333 -19 21 -70 46 -188 92 -90 35 -172 73 -182 84 -17 19 -18 26 -8 71 6 31
27 72 55 110 25 33 53 78 64 100 10 22 25 52 33 66 13 23 12 33 -4 90 -25 89
-55 143 -109 201 -65 69 -93 82 -179 80 -86 -2 -134 -20 -186 -70 -38 -36 -87
-125 -87 -156 0 -8 -18 -36 -40 -61 -22 -26 -38 -50 -35 -54 2 -5 29 -11 60
-13 30 -3 58 -8 62 -12 4 -4 10 -67 13 -141 5 -132 6 -134 39 -181 41 -59 37
-68 -46 -109 -34 -16 -73 -41 -88 -54 -36 -35 -82 -110 -101 -165 -15 -42 -18
-45 -42 -40 -28 7 -199 99 -267 144 -55 36 -226 138 -430 255 -93 53 -174 101
-180 105 -5 4 -75 45 -155 90 -80 46 -242 141 -360 213 -224 135 -331 197
-588 338 -84 46 -163 93 -176 104 l-24 20 -5 518 -4 518 31 14 c29 13 29 14 4
9 l-27 -6 0 1433 0 1433 -101 65 c-55 36 -162 104 -236 151 -74 47 -214 137
-312 201 -238 155 -551 354 -741 471 -30 18 -95 59 -145 92 -49 32 -115 72
-145 89 -31 16 -76 43 -101 58 -25 16 -80 50 -122 76 -42 27 -127 81 -189 121
-62 39 -118 72 -126 72 -11 0 -13 -76 -15 -407z m287 200 c38 -18 43 -28 20
-37 -8 -3 -15 -2 -15 3 0 4 -11 14 -25 21 -14 7 -25 17 -25 22 0 11 4 10 45
-9z m176 -245 c38 -39 69 -76 69 -82 0 -6 -21 12 -46 39 -26 28 -60 65 -77 83
-17 17 -27 32 -23 32 4 0 39 -32 77 -72z m4408 -5144 c-6 -19 -9 -45 -7 -57 3
-19 7 -16 26 20 21 40 24 43 58 38 62 -8 84 -29 86 -83 1 -36 2 -40 5 -14 8
63 48 22 58 -59 l7 -55 -37 4 c-32 4 -36 7 -31 26 3 12 1 28 -4 36 -7 11 -10
8 -10 -15 0 -16 -4 -35 -8 -41 -8 -14 -91 -23 -95 -11 -1 4 -45 9 -97 11 l-95
2 1 35 c2 67 25 123 65 162 23 21 50 37 64 37 22 0 23 -2 14 -36z m-153 -40
c-6 -15 -17 -59 -31 -126 -4 -20 -12 -28 -26 -28 -19 0 -21 4 -16 34 8 53 48
136 64 136 10 0 13 -6 9 -16z m338 -203 c46 -4 71 -11 74 -20 4 -12 -25 -13
-189 -7 -252 10 -362 20 -329 29 52 14 279 14 444 -2z m-146 -96 c6 -45 19
-55 78 -55 65 0 69 -13 22 -73 -32 -40 -33 -44 -33 -142 0 -112 -8 -132 -72
-181 -28 -21 -37 -24 -44 -13 -5 8 -9 19 -9 25 0 6 -9 19 -20 29 -33 30 -25
61 21 91 48 30 46 40 -8 25 -71 -20 -90 -15 -120 32 -23 37 -27 55 -31 145 -3
74 -1 110 9 128 12 24 16 25 108 22 l96 -3 3 -30z m-150 -428 c3 -32 0 -37
-17 -37 -26 0 -39 43 -21 65 20 24 35 12 38 -28z m442 -15 c125 -49 171 -73
177 -90 3 -9 32 -78 64 -152 32 -74 67 -170 79 -213 12 -43 32 -102 46 -133
26 -60 30 -103 13 -137 -15 -27 -147 -155 -215 -208 -41 -31 -58 -38 -77 -34
-63 16 -43 116 56 278 21 35 33 66 30 75 -10 28 -113 180 -170 250 -24 30 -47
61 -52 70 -18 32 -24 2 -8 -35 9 -21 23 -63 31 -93 8 -30 24 -81 36 -113 25
-71 21 -103 -28 -205 -45 -93 -76 -117 -140 -109 -63 8 -220 69 -249 97 -29
28 -30 64 -4 174 10 44 22 116 26 160 3 43 12 95 20 115 11 29 21 95 27 188 2
17 29 26 42 13 16 -16 33 -12 69 20 19 17 39 30 44 30 13 0 59 51 67 74 7 21
8 21 116 -22z m-199 10 c-13 -24 -50 -56 -57 -50 -12 12 27 68 47 68 16 0 18
-4 10 -18z m-301 -37 c6 -20 23 -49 37 -66 26 -31 27 -58 7 -151 -8 -35 8 -36
26 -3 7 14 15 23 17 21 7 -7 -19 -130 -31 -145 -7 -9 -11 -72 -11 -172 -1 -87
-4 -161 -7 -165 -11 -10 -37 10 -94 75 l-54 62 0 123 c0 132 -2 138 -52 150
-33 8 -33 9 -81 -134 -28 -82 -46 -120 -64 -134 -14 -11 -33 -39 -44 -63 -18
-42 -20 -43 -66 -45 -82 -3 -104 2 -182 38 -218 101 -219 102 -206 170 6 33 7
34 56 34 47 0 84 -9 264 -64 67 -20 83 -22 100 -12 34 22 143 205 170 287 9
27 21 49 26 49 5 0 9 8 9 18 0 19 35 88 54 108 17 17 88 54 103 54 6 0 17 -16
23 -35z m-1045 -320 c0 -13 -8 -21 -24 -23 -32 -5 -48 12 -31 33 18 22 55 15
55 -10z m189 -26 c35 -28 38 -100 4 -124 -22 -15 -23 -14 -35 20 -7 19 -19 45
-28 57 -26 38 -18 64 21 67 6 1 23 -8 38 -20z m-124 -13 c9 -12 8 -22 -5 -50
-20 -42 -30 -44 -62 -14 -30 28 -29 44 5 62 34 19 47 20 62 2z m54 -82 c18
-18 21 -76 6 -105 -6 -10 -20 -19 -30 -19 -17 0 -20 7 -20 44 0 42 14 96 24
96 3 0 12 -7 20 -16z m715 -223 c11 -7 13 -24 8 -75 -4 -37 -9 -71 -12 -76 -4
-6 -24 -10 -46 -10 -35 0 -39 3 -39 25 0 28 27 114 42 133 12 14 27 15 47 3z
m104 -37 c18 -9 46 -27 64 -40 17 -13 55 -33 85 -44 30 -11 87 -42 128 -70 41
-28 93 -55 115 -61 74 -20 73 -29 -12 -71 -50 -25 -86 -37 -100 -33 -13 3 -23
1 -23 -5 0 -5 5 -10 10 -10 6 0 10 -7 10 -15 0 -8 -2 -15 -5 -15 -4 0 -233
113 -335 166 -25 13 -44 29 -43 36 9 51 37 155 46 166 12 16 22 15 60 -4z
m859 -264 c0 -33 1 -66 2 -72 1 -7 -9 -14 -21 -16 -22 -3 -23 0 -23 60 0 59
11 88 32 88 4 0 9 -27 10 -60z m-352 -25 c35 -18 60 -52 60 -82 0 -29 2 -29
56 3 56 33 101 27 200 -26 39 -22 93 -44 120 -51 73 -18 76 -23 53 -77 -51
-123 -65 -134 -136 -107 -97 37 -287 143 -295 165 l-8 22 -26 -21 c-30 -24
-83 -36 -113 -26 -29 9 -81 54 -81 70 0 7 12 16 28 20 58 14 85 65 35 65 l-28
1 33 29 c36 34 60 37 102 15z m-473 -21 c27 -17 63 -84 63 -118 0 -13 -7 -27
-16 -30 -19 -7 -194 22 -194 33 0 22 55 131 69 134 21 6 50 -2 78 -19z m208
-270 c22 -3 67 -15 99 -25 40 -13 89 -19 147 -19 104 0 118 -9 120 -78 l1 -47
8 48 c5 27 11 52 14 55 19 18 27 -37 36 -229 13 -325 19 -658 10 -624 -4 17
-8 49 -9 73 l-1 44 -41 -40 c-34 -34 -40 -46 -38 -74 2 -22 -1 -32 -9 -31 -7
2 -12 -2 -12 -7 0 -6 4 -10 9 -10 5 0 7 -10 3 -22 -3 -14 -2 -19 6 -14 7 4 12
1 12 -6 0 -9 13 -14 35 -15 31 -1 36 2 43 30 12 43 27 -356 18 -485 -7 -119
-11 -128 -46 -128 -25 0 -30 6 -45 53 -10 28 -24 63 -33 76 -8 14 -19 41 -24
60 -13 56 -31 247 -32 344 -1 76 -4 91 -23 111 -22 22 -63 130 -63 164 0 35
-31 137 -56 186 -48 92 -73 188 -84 328 -14 160 -30 211 -69 228 -16 6 -42 10
-57 8 l-29 -3 1 -130 c1 -116 4 -135 25 -175 21 -42 23 -57 23 -195 0 -113 -5
-165 -18 -210 -12 -41 -19 -110 -22 -215 -5 -150 -16 -210 -36 -210 -6 0 -8
-7 -4 -15 3 -8 2 -15 -2 -15 -12 0 -55 102 -68 165 -7 33 -13 86 -14 117 0 31
-5 69 -11 85 -7 17 -13 146 -16 333 -2 168 -5 346 -6 397 -1 64 2 96 11 105 7
7 45 16 85 19 72 6 87 5 162 -7z m-123 -1533 c0 -79 -11 -103 -40 -85 -9 6
-21 22 -26 36 -12 34 2 138 19 138 7 0 16 8 20 18 12 30 26 -25 27 -107z"/>
<path d="M11325 7540 c-3 -5 1 -10 9 -10 9 0 16 5 16 10 0 6 -4 10 -9 10 -6 0
-13 -4 -16 -10z"/>
<path d="M10670 6790 c8 -5 20 -10 25 -10 6 0 3 5 -5 10 -8 5 -19 10 -25 10
-5 0 -3 -5 5 -10z"/>
<path d="M10715 6770 c-3 -5 1 -10 10 -10 9 0 13 5 10 10 -3 6 -8 10 -10 10
-2 0 -7 -4 -10 -10z"/>
<path d="M11150 6239 c0 -16 -4 -28 -9 -25 -23 14 -29 -205 -10 -355 11 -82
14 -90 47 -120 l35 -32 -6 114 c-4 63 -7 160 -7 217 0 57 -4 101 -9 98 -9 -6
-21 49 -21 102 0 17 -4 32 -10 32 -5 0 -10 -14 -10 -31z"/>
<path d="M11171 5385 c-15 -19 -21 -65 -12 -82 16 -30 31 -109 32 -170 1 -32
4 -69 8 -83 7 -24 7 -24 14 9 4 18 7 102 7 187 0 148 -1 153 -21 151 -11 -1
-24 -6 -28 -12z"/>
<path d="M4645 13528 c-4 -18 -5 -64 -3 -103 1 -38 -1 -854 -5 -1812 -4 -957
-4 -1748 -1 -1756 7 -18 33 -12 52 12 11 14 12 10 7 -24 -10 -59 -13 -65 -32
-65 -15 0 -19 -9 -19 -42 -1 -35 -8 -48 -38 -76 -25 -23 -31 -33 -19 -30 43 7
43 9 43 -467 0 -353 -3 -454 -12 -459 -9 -3 -8 -8 5 -16 17 -11 19 -25 16
-134 -1 -66 -2 -292 -1 -501 2 -209 2 -386 2 -393 0 -10 -5 -10 -22 2 -36 25
-42 19 -18 -21 25 -42 63 -151 80 -227 6 -27 20 -61 30 -77 20 -28 25 -55 14
-83 -9 -25 -19 -20 -50 27 -22 33 -30 58 -35 115 -5 59 -11 78 -31 100 -17 18
-28 44 -32 75 -6 47 -43 124 -71 147 -9 7 -26 10 -42 6 -26 -7 -24 -4 18 36
60 55 70 91 58 206 -5 48 -12 99 -15 115 -5 22 -3 27 12 27 17 1 17 2 3 13 -8
7 -36 44 -62 84 -26 41 -59 79 -76 87 -46 24 -163 21 -231 -7 -48 -19 -59 -30
-93 -86 -26 -42 -42 -83 -47 -120 -4 -31 -16 -82 -25 -114 -21 -74 -14 -117
31 -180 19 -26 34 -49 34 -52 0 -9 -123 -65 -157 -71 -18 -3 -33 -10 -33 -15
0 -5 -8 -9 -19 -9 -21 0 -30 39 -31 125 -1 37 -7 57 -24 79 -22 26 -31 29
-112 36 -113 10 -945 7 -961 -3 -16 -10 -17 -51 -2 -79 6 -11 15 -44 19 -72
11 -73 70 -358 75 -366 3 -4 23 -97 45 -206 22 -109 46 -202 53 -206 6 -5 39
-6 72 -3 33 3 175 7 315 10 370 6 518 15 531 31 6 7 17 33 24 56 10 35 17 44
39 46 20 3 26 -1 26 -15 0 -52 -25 -161 -62 -271 -39 -116 -41 -123 -23 -135
16 -13 17 -21 6 -130 -11 -101 -10 -143 8 -329 11 -117 23 -281 26 -364 6
-138 5 -157 -15 -220 -30 -93 -37 -230 -17 -309 22 -84 40 -278 35 -377 -4
-78 -7 -91 -66 -209 -34 -70 -62 -131 -62 -137 0 -20 45 -42 86 -42 33 0 52 7
86 35 24 19 60 44 81 55 l37 20 0 109 c0 59 -5 133 -11 164 -9 44 -9 71 1 117
7 33 17 63 21 66 5 3 9 18 9 33 0 15 9 62 20 105 12 43 32 165 45 270 27 212
30 226 54 227 9 0 27 2 39 3 13 2 26 -2 28 -8 2 -6 5 -149 7 -318 3 -189 8
-312 14 -320 14 -17 33 -135 28 -168 -2 -14 -9 -73 -16 -132 -14 -123 -11
-131 53 -150 21 -6 43 -19 48 -28 5 -9 37 -29 70 -44 55 -25 65 -26 93 -15 18
7 35 15 40 19 10 8 -18 73 -53 125 -15 22 -40 65 -56 95 -28 52 -29 61 -27
170 1 63 6 142 12 175 5 33 19 123 31 200 12 77 21 172 20 210 0 39 4 102 11
140 6 39 12 102 13 140 4 111 16 175 35 175 13 0 13 2 2 9 -10 7 -12 22 -7 62
4 30 9 102 10 161 2 66 7 112 15 121 8 10 9 17 1 22 -11 7 -14 83 -4 109 3 9
18 16 33 16 26 0 26 1 -6 16 l-33 16 0 107 c0 101 -2 109 -35 175 -35 68 -35
70 -35 200 0 138 9 173 41 161 14 -5 56 -99 73 -160 12 -48 16 -135 8 -200 -5
-38 -6 -75 -1 -80 4 -6 32 -19 61 -30 66 -23 75 -28 172 -93 44 -30 98 -63
120 -74 22 -11 69 -39 105 -63 36 -23 92 -57 124 -76 44 -25 57 -39 57 -57 0
-19 3 -21 17 -13 13 7 38 -1 103 -36 87 -47 160 -93 195 -123 11 -10 31 -21
45 -25 14 -4 43 -20 65 -35 22 -15 63 -39 90 -54 55 -28 242 -147 263 -165 6
-7 13 -26 13 -44 1 -24 3 -27 6 -9 3 13 11 26 19 29 17 6 54 -24 54 -43 0 -7
6 -11 14 -8 13 5 110 -45 241 -126 33 -20 96 -58 140 -84 44 -26 122 -74 174
-107 51 -33 114 -71 140 -86 182 -102 233 -131 288 -162 148 -86 203 -123 198
-132 -4 -5 1 -9 10 -9 43 0 320 -151 695 -379 41 -25 113 -65 160 -89 47 -25
94 -52 104 -61 11 -9 16 -11 13 -5 -8 14 90 89 303 232 85 57 170 118 189 136
63 59 61 30 60 763 0 367 -4 659 -9 648 -4 -11 -8 -216 -9 -455 -1 -239 -6
-475 -11 -523 -12 -101 -10 -238 2 -231 4 3 8 1 8 -5 0 -5 -4 -13 -10 -16 -5
-3 -10 -23 -11 -43 0 -32 -1 -34 -9 -14 -11 25 -30 699 -30 1033 0 203 -1 217
-20 234 -19 17 -20 17 -34 -16 -21 -50 -36 -139 -56 -324 -6 -55 -16 -118 -22
-140 -6 -22 -10 -46 -9 -54 1 -7 -2 -10 -8 -6 -6 3 -11 0 -11 -7 0 -7 -11 -25
-25 -40 -17 -18 -25 -39 -25 -63 0 -32 2 -35 30 -35 l30 0 0 -80 0 -80 -33 0
c-21 0 -38 -7 -47 -20 -15 -20 -50 -28 -50 -10 0 5 -28 10 -62 12 l-63 3 0
116 c0 70 -4 121 -11 130 -6 8 -15 55 -19 104 -4 50 -9 109 -11 133 -2 24 -8
79 -13 122 -7 50 -7 116 -1 182 10 115 4 135 -55 167 -17 9 -49 29 -72 44 -24
15 -62 35 -85 44 -24 9 -45 20 -48 23 -3 4 -21 15 -40 25 -40 20 -102 56 -242
141 -108 65 -163 97 -229 133 -24 13 -63 37 -86 52 -23 16 -53 33 -68 39 -15
6 -46 24 -70 40 -24 17 -46 30 -49 30 -4 0 -29 16 -56 35 -28 20 -76 49 -108
66 -31 17 -79 46 -107 64 -27 18 -70 43 -95 56 -25 13 -62 36 -83 52 -20 16
-65 42 -99 59 -33 16 -85 44 -114 63 -70 45 -178 107 -292 166 -92 49 -111 62
-163 109 l-27 25 -1 255 c-1 140 -3 669 -6 1175 -2 506 -5 1312 -5 1790 -1
479 -4 885 -7 902 -6 35 -46 70 -155 135 -132 79 -443 298 -464 326 -8 11 -14
97 -18 257 -3 132 -9 269 -12 304 -4 46 -2 66 7 71 10 7 10 14 0 38 -32 76 10
104 74 49 45 -38 278 -195 465 -312 69 -43 127 -82 130 -85 3 -3 23 -17 45
-30 22 -13 90 -56 150 -95 61 -39 152 -98 202 -130 75 -47 95 -65 104 -93 8
-25 10 -596 8 -2149 l-4 -2115 41 -37 c23 -20 95 -67 160 -105 66 -37 158 -91
206 -119 48 -29 138 -81 200 -116 62 -36 153 -91 202 -124 111 -73 197 -125
351 -212 66 -37 156 -89 200 -115 206 -123 401 -228 390 -211 -3 6 -20 18 -37
27 -17 9 -36 20 -42 26 -23 20 -483 298 -531 321 -22 11 -49 28 -60 38 -12 10
-59 37 -105 60 -47 23 -107 56 -135 74 -129 83 -563 338 -680 399 -49 27 -100
58 -113 70 l-23 22 1 340 c0 214 4 340 10 342 14 5 12 32 -2 32 -10 0 -13 70
-13 315 0 270 2 317 15 325 13 8 13 10 -2 10 -14 0 -15 10 -11 78 3 42 10 80
16 83 6 4 5 8 -2 10 -8 3 -11 362 -11 1374 0 1073 -3 1375 -13 1394 -6 14 -39
41 -72 60 -34 20 -90 57 -125 82 -36 26 -114 77 -175 113 -60 37 -139 87 -175
112 -36 24 -137 89 -225 142 -147 90 -244 155 -319 214 -16 13 -47 33 -68 45
-67 39 -65 53 -61 -469 4 -436 3 -467 -15 -533 -11 -38 -22 -77 -26 -85 -4
-11 24 -34 102 -85 l107 -70 -2 -2268 -2 -2268 32 -14 c18 -8 70 -39 117 -71
47 -31 139 -87 205 -123 l120 -66 -1 -55 c-1 -51 -1 -52 3 -7 2 26 9 47 14 47
6 0 46 -23 90 -52 53 -35 81 -59 84 -75 14 -66 16 -75 20 -71 2 2 5 18 7 34
l2 30 55 -33 c30 -18 64 -36 75 -39 12 -4 59 -32 105 -63 89 -60 102 -68 171
-100 25 -11 56 -29 70 -40 14 -10 69 -42 124 -72 54 -29 93 -55 86 -57 -7 -3
37 -30 96 -61 60 -32 131 -72 158 -89 28 -18 54 -32 59 -32 16 0 174 -99 206
-129 16 -15 32 -24 33 -19 2 5 34 -10 72 -33 38 -23 92 -52 121 -65 l52 -24 6
-131 c3 -71 3 -145 0 -164 -9 -55 -46 -48 -164 30 -53 35 -126 79 -161 98 -89
47 -484 292 -579 358 -31 21 -114 72 -185 112 -275 157 -378 218 -448 267 -40
27 -77 50 -83 50 -19 0 -93 60 -89 72 1 7 1 10 -1 6 -9 -16 -42 -7 -84 24 -24
17 -129 83 -234 146 -104 63 -198 122 -208 131 -10 9 -64 39 -120 66 l-101 50
3 60 c1 33 4 68 7 78 8 25 44 37 110 37 l54 0 2 -77 2 -78 3 72 c2 40 0 81 -6
90 -5 10 -39 33 -75 51 -36 18 -69 38 -73 46 -4 7 -16 15 -25 19 -17 6 -18 51
-19 734 -2 603 -4 710 -13 623 -10 -95 -12 -71 -13 265 -1 243 1 360 8 340 5
-16 9 -128 8 -249 0 -120 3 -221 6 -225 4 -3 5 489 1 1094 -3 605 -6 1276 -7
1490 -1 215 -5 374 -8 355 -3 -19 -8 75 -11 210 -3 135 -6 -675 -6 -1800 -1
-1125 2 -2031 6 -2015 5 20 8 0 8 -60 0 -59 -2 -83 -8 -70 -5 12 -9 -112 -9
-300 -1 -211 -5 -315 -11 -305 -5 8 -11 124 -12 265 -1 167 -4 222 -8 165 -3
-47 -8 -71 -9 -55 -2 19 -5 24 -8 13 -2 -10 -9 -18 -14 -18 -5 0 -9 -13 -9
-30 0 -20 -5 -30 -15 -30 -11 0 -15 -13 -15 -54 0 -30 4 -57 8 -60 22 -13 2
-63 -48 -123 -5 -7 -10 -15 -10 -19 0 -11 -42 -44 -56 -44 -7 0 -14 -5 -16
-12 -6 -16 -118 -17 -118 -2 0 6 -7 17 -15 24 -8 7 -15 22 -15 34 0 13 -11 32
-24 43 -13 12 -28 29 -34 39 -7 12 -28 20 -72 25 -33 4 -64 10 -67 13 -11 11
30 46 54 46 12 0 23 4 23 9 0 5 36 11 80 13 73 4 100 11 89 22 -2 3 -49 7
-104 11 -55 4 -106 8 -112 10 -19 6 -4 35 18 35 10 0 19 4 19 8 0 4 14 13 30
19 24 9 30 17 30 40 0 28 16 59 52 97 35 38 15 56 -64 56 -21 0 -38 5 -38 11
0 6 17 10 43 8 70 -4 198 81 194 129 0 11 -5 18 -9 16 -9 -6 -11 7 -8 47 1 23
-4 27 -37 34 -56 10 -64 20 -48 57 8 19 9 36 3 42 -5 6 -15 20 -22 30 -11 16
-25 19 -92 18 -95 -2 -134 5 -134 23 0 13 12 17 90 30 79 14 96 65 25 76 -27
4 -32 7 -15 8 23 2 23 3 5 10 -15 6 -10 9 23 15 187 29 189 50 5 45 -100 -3
-137 -1 -140 8 -3 7 8 15 24 19 40 10 53 23 53 55 0 22 -7 32 -30 44 -33 17
-39 39 -14 49 9 3 50 6 93 6 51 0 84 5 97 14 35 27 3 38 -112 40 -101 2 -109
3 -109 21 0 24 49 44 110 45 51 0 86 10 80 21 -8 12 34 47 66 54 16 4 27 11
23 16 -3 5 5 9 17 9 22 0 22 0 3 21 -15 17 -27 20 -60 16 -39 -4 -41 -3 -42
22 -1 30 -39 121 -51 121 -4 0 -8 7 -8 15 0 8 8 15 17 15 22 0 70 37 70 55 0
7 -11 20 -25 29 -25 16 -34 46 -15 46 6 0 10 7 10 15 0 8 5 15 10 15 6 0 10 5
10 10 0 13 -134 13 -177 1 -24 -7 -35 -6 -44 5 -21 25 13 49 64 46 97 -7 253
-6 271 1 15 6 16 10 6 22 -10 12 -43 15 -176 15 l-163 0 8 23 c4 12 20 28 34
35 15 7 27 17 27 23 0 5 11 9 25 9 51 0 21 26 -58 50 -51 16 -47 42 10 54 50
12 67 36 24 36 -21 0 -30 6 -34 21 -4 16 1 24 28 35 19 8 44 14 55 14 31 0 89
27 96 44 3 8 30 22 60 31 37 11 54 21 54 32 0 14 -15 15 -147 9 -81 -4 -153
-12 -160 -18 -10 -8 -13 -6 -13 10 0 25 41 58 87 71 33 9 133 99 133 119 0 6
-7 12 -15 16 -8 3 -15 12 -15 21 0 8 -4 15 -9 15 -11 0 -9 19 3 39 16 25 -21
34 -141 35 -29 0 -29 12 -2 26 15 8 29 8 51 1 42 -15 88 -14 118 3 14 8 45 24
69 35 63 30 43 44 -60 42 -58 -2 -85 2 -91 11 -8 10 -11 10 -15 1 -7 -20 -112
-17 -120 3 -9 23 10 36 62 41 36 5 48 2 59 -12 12 -16 13 -14 12 16 -1 29 -5
34 -26 37 -100 10 -110 13 -110 33 0 23 36 39 90 39 21 0 45 7 54 15 8 8 19
15 25 15 6 0 11 5 11 10 0 6 -36 10 -88 10 -49 0 -91 3 -94 6 -10 9 3 42 20
50 10 4 42 10 72 13 30 3 54 11 53 16 -2 6 -33 12 -69 15 -49 4 -70 10 -78 22
-21 34 7 43 161 48 100 3 148 9 150 17 7 21 -30 31 -87 23 -30 -4 -92 -5 -138
-2 l-83 5 3 31 c3 30 5 31 71 40 37 5 67 13 67 17 0 14 -35 28 -88 35 -41 5
-52 10 -52 25 0 26 39 49 83 49 40 0 104 27 92 38 -4 4 -41 7 -83 7 -65 0 -77
3 -80 17 -6 31 42 41 160 34 65 -4 117 -2 134 4 51 20 9 32 -138 40 -78 5
-152 12 -162 16 -17 7 -15 9 15 20 19 7 53 13 75 13 29 1 44 6 48 18 4 9 3 19
-1 23 -14 12 -75 30 -103 30 -15 0 -33 6 -39 13 -14 18 19 34 89 43 49 6 80
24 80 45 0 5 -33 9 -74 9 -82 0 -106 6 -106 25 0 17 53 35 104 35 23 0 46 4
51 8 6 5 30 15 55 22 l45 14 -55 8 c-30 4 -80 5 -111 2 -69 -8 -90 2 -78 34 7
18 16 22 53 22 25 0 47 -4 50 -9 8 -12 138 -24 175 -16 27 6 29 9 21 26 -9 16
-20 19 -63 17 -29 -1 -94 -2 -144 0 l-93 2 0 29 c0 34 12 40 88 40 60 0 72 5
72 31 0 24 -19 30 -96 30 -50 0 -66 4 -71 16 -9 23 18 44 63 50 107 14 105 13
91 34 -10 16 -23 20 -74 20 -47 0 -63 4 -63 14 0 14 41 26 94 26 33 1 66 20
66 39 0 7 -27 11 -80 11 -66 0 -82 3 -87 16 -13 35 24 45 134 38 112 -7 173 0
173 20 0 21 -34 26 -173 26 -108 0 -129 2 -134 16 -8 21 11 32 74 40 48 6 53
9 53 31 0 22 -3 24 -22 19 -80 -23 -128 -14 -128 25 0 26 54 49 116 49 32 0
44 4 41 13 -3 8 -22 11 -64 9 -57 -4 -61 -2 -65 20 -8 41 1 48 57 48 49 0 115
24 115 41 0 4 -36 9 -79 10 -86 4 -85 4 -95 36 -11 35 23 47 98 34 79 -14 206
-14 206 -1 0 6 -9 10 -19 10 -11 0 -23 5 -26 10 -3 6 -50 10 -105 10 -54 0
-105 3 -114 6 -19 7 -22 40 -3 42 42 4 112 24 118 34 4 6 2 19 -4 30 -10 15
-25 18 -89 18 -42 0 -79 4 -83 9 -8 13 50 30 112 32 42 2 53 6 57 22 8 33 -1
37 -80 37 -65 0 -75 2 -72 17 3 18 56 39 121 48 23 4 51 15 62 26 19 19 18 19
-83 19 -56 0 -102 4 -102 9 0 27 37 36 154 37 165 2 166 2 166 19 0 18 12 17
-173 15 l-148 -1 3 27 c3 24 9 29 53 39 97 22 97 45 0 45 l-63 0 2 31 c3 40
19 49 91 49 38 0 55 4 46 9 -11 7 -11 9 0 14 8 3 -21 6 -63 6 -70 1 -78 3 -78
21 0 28 21 70 36 70 25 0 25 20 -1 30 -17 7 -25 16 -23 28 2 13 17 18 68 22
49 4 65 9 65 20 0 11 -15 16 -63 18 -62 3 -63 3 -60 30 3 26 5 27 70 30 58 2
73 -1 109 -23 23 -15 60 -35 83 -44 62 -27 182 -108 234 -157 25 -24 49 -44
54 -44 4 0 8 13 8 28 0 33 -62 102 -112 126 -18 9 -45 26 -60 39 -23 20 -56
37 -118 61 -18 7 -108 69 -130 90 -23 21 -89 46 -122 46 -23 0 -29 4 -24 16 3
9 6 24 6 35 0 10 6 19 14 19 8 0 83 -46 168 -103 204 -136 398 -245 398 -224
0 2 -35 27 -77 54 -43 28 -173 112 -290 187 -117 75 -221 136 -232 136 -15 0
-22 -9 -26 -32z m662 -2425 c-2 -32 -3 -6 -3 57 0 63 1 89 3 58 2 -32 2 -84 0
-115z m0 -195 c-2 -24 -4 -5 -4 42 0 47 2 66 4 43 2 -24 2 -62 0 -85z m0 -300
c-2 -35 -3 -7 -3 62 0 69 1 97 3 63 2 -35 2 -91 0 -125z m-577 -1598 c0 -5 -4
-10 -9 -10 -5 0 -18 -3 -28 -7 -16 -6 -16 -5 -4 10 15 19 41 23 41 7z m589
-602 c0 -31 -3 -60 -9 -63 -6 -4 -10 27 -9 87 1 101 16 82 18 -24z m-431 -154
c21 -7 30 -13 22 -14 -8 0 -55 -5 -103 -11 -67 -8 -91 -8 -102 1 -20 17 -19
38 3 43 27 7 140 -5 180 -19z m-493 -11 c47 -47 78 -92 81 -118 2 -25 -10 -34
-21 -15 -3 6 -15 10 -27 10 -16 0 -19 5 -16 25 3 13 1 22 -3 19 -5 -3 -9 -14
-9 -26 0 -16 -5 -19 -22 -14 -13 3 -34 6 -48 6 l-25 1 24 19 c13 11 35 20 50
20 25 1 25 1 7 15 -13 10 -37 13 -70 11 -47 -2 -51 -5 -48 -25 2 -15 0 -21 -7
-17 -7 4 -8 1 -5 -8 3 -9 1 -16 -5 -16 -6 0 -11 4 -11 10 0 5 -6 7 -14 4 -9
-4 -16 9 -23 45 -14 69 -1 81 93 81 64 0 74 -3 99 -27z m438 -59 c39 -6 44 -9
32 -20 -19 -19 -155 -20 -155 -1 0 28 30 33 123 21z m-490 -90 c90 -38 100
-49 94 -107 -2 -26 -11 -55 -19 -65 -9 -9 -19 -31 -22 -48 -11 -48 -48 -77
-98 -77 -24 0 -53 5 -65 11 -23 13 -93 143 -93 174 0 11 15 34 33 52 17 18 43
45 56 59 29 33 36 33 114 1z m964 -91 c-3 -10 -5 -4 -5 12 0 17 2 24 5 18 2
-7 2 -21 0 -30z m-1204 -171 c14 -29 0 -42 -35 -35 -32 6 -35 23 -17 87 l11
39 15 -34 c8 -19 20 -44 26 -57z m-1145 1 c-2 -14 -14 -19 -48 -20 l-45 -3 35
20 c44 24 62 25 58 3z m257 -69 c62 -5 73 -10 101 -39 36 -38 54 -99 54 -178
0 -47 -3 -55 -21 -60 -16 -4 -24 1 -35 29 -16 38 -30 43 -39 14 -8 -24 -28
-26 -45 -5 -18 22 -30 9 -30 -35 0 -21 -4 -41 -9 -44 -10 -7 -9 -19 7 -59 7
-16 12 -31 12 -33 0 -11 -205 9 -237 22 -40 17 -45 26 -60 97 -9 43 -22 69
-49 99 -32 36 -36 45 -31 81 3 22 14 48 24 58 23 23 206 69 253 64 19 -2 66
-7 105 -11z m1124 -13 c10 -6 12 -21 8 -50 -7 -56 -22 -71 -68 -71 -22 0 -39
-4 -39 -10 0 -5 8 -10 18 -10 45 -1 45 -14 -5 -116 l-48 -99 -3 60 c-4 74 6
165 19 165 5 0 9 5 9 11 0 5 -5 7 -12 3 -8 -5 -9 -2 -4 12 4 10 13 40 19 67
12 46 12 47 52 47 22 0 46 -4 54 -9z m-705 -42 c8 -12 12 -28 9 -37 -5 -12 -1
-14 20 -10 15 3 27 2 27 -2 0 -4 6 -8 13 -7 51 2 55 -2 62 -54 4 -27 4 -53 0
-57 -3 -4 -20 1 -37 11 -22 12 -34 15 -42 7 -16 -16 -56 -12 -62 8 -3 9 -17
38 -30 63 -24 46 -30 80 -17 92 13 14 42 6 57 -14z m176 -60 c0 -24 -4 -30
-17 -27 -11 2 -19 14 -21 31 -3 22 1 27 17 27 17 0 21 -6 21 -31z m-33 -154
c40 -13 13 -25 -58 -25 -61 0 -69 2 -69 19 0 11 8 21 18 23 19 4 74 -5 109
-17z m23 -66 c11 -7 -3 -9 -47 -6 -35 2 -66 7 -70 10 -11 11 101 8 117 -4z
m350 -56 c0 -13 -4 -23 -10 -23 -5 0 -10 17 -10 38 0 27 3 33 10 22 5 -8 10
-25 10 -37z m1160 32 c0 -8 -13 -21 -30 -30 -16 -9 -30 -17 -30 -19 0 -2 46
-1 103 2 71 3 99 1 92 -6 -14 -15 -199 -62 -241 -62 -19 0 -43 -6 -54 -12 -16
-11 -23 -10 -37 5 -16 15 -16 19 -3 27 8 5 23 7 32 4 12 -4 21 2 28 18 12 30
29 50 60 71 31 21 80 23 80 2z m-1902 -36 c49 -29 56 -38 53 -66 -1 -8 10 -13
29 -13 36 0 39 -13 8 -34 -28 -20 -58 -20 -58 -1 0 10 -11 15 -35 15 -24 0
-49 10 -81 35 -25 19 -50 35 -55 35 -17 0 -9 33 13 52 27 23 52 18 126 -23z
m872 10 c0 -22 -27 -32 -34 -13 -10 25 -7 30 14 30 12 0 20 -7 20 -17z m-540
4 c-1 -19 -20 -36 -44 -38 -14 -2 -24 1 -20 6 3 5 -1 9 -8 10 -7 0 3 6 22 13
44 17 50 18 50 9z m1188 -72 c10 -6 8 -9 -10 -13 -12 -2 -32 -2 -42 0 -15 3
-16 6 -5 13 18 11 40 11 57 0z m-1217 -8 c-11 -4 -11 -7 0 -14 7 -4 10 -11 6
-15 -10 -11 -31 12 -23 25 4 6 13 11 19 10 8 0 7 -3 -2 -6z m-581 -22 c0 -38
-60 -54 -80 -21 -13 22 8 40 46 40 27 0 34 -4 34 -19z m-160 -11 c0 -5 -7 -10
-15 -10 -8 0 -15 5 -15 10 0 6 7 10 15 10 8 0 15 -4 15 -10z m367 -36 c37 -28
68 -86 59 -110 -7 -17 -89 -54 -119 -54 -12 0 -40 7 -62 14 -26 9 -46 11 -57
5 -9 -5 -30 -9 -47 -9 -38 0 -51 22 -51 89 0 45 3 51 20 51 12 0 31 7 44 15
30 20 102 35 144 30 19 -2 50 -16 69 -31z m942 -1 c-1 -44 -26 -216 -28 -192
0 8 -11 35 -23 60 -14 30 -21 61 -20 97 2 65 6 72 43 72 27 0 29 -2 28 -37z
m-639 7 c20 -20 15 -25 -14 -14 -9 3 -16 12 -16 20 0 19 6 18 30 -6z m36 5
c18 -13 18 -14 -4 -8 -12 3 -25 9 -28 14 -8 14 10 11 32 -6z m1638 -31 c10
-27 7 -43 -13 -63 -18 -18 -20 -18 -23 -3 -11 55 19 110 36 66z m-114 -107 c0
-1 4 -17 9 -35 6 -20 6 -30 0 -27 -5 4 -9 -3 -9 -14 0 -12 -5 -21 -11 -21 -6
0 -9 -19 -8 -48 3 -55 -18 -95 -47 -90 -14 2 -18 -2 -16 -17 2 -16 1 -17 -7
-5 -8 12 -13 12 -23 2 -9 -9 -9 -12 3 -12 7 -1 3 -7 -11 -14 -14 -8 -28 -12
-32 -10 -5 3 -8 1 -8 -5 0 -19 -35 -18 -72 3 -41 21 -49 36 -20 33 9 0 29 7
45 17 30 21 37 56 10 56 -16 1 -16 2 -3 13 9 7 14 20 12 29 -2 12 8 22 30 32
34 14 84 53 121 94 17 18 37 29 37 19z m30 -1 c0 -3 -4 -8 -10 -11 -5 -3 -10
-1 -10 4 0 6 5 11 10 11 6 0 10 -2 10 -4z m148 -29 c3 -12 -4 -17 -23 -17 -23
0 -25 2 -15 21 13 23 33 21 38 -4z m48 -45 c-18 -16 -18 -16 -6 6 6 13 14 21
18 18 3 -4 -2 -14 -12 -24z m112 -34 c14 -14 16 -44 3 -52 -17 -11 -44 20 -37
42 8 25 17 27 34 10z m92 -78 c0 -21 -21 -32 -39 -20 -10 6 -10 12 -2 28 13
25 41 19 41 -8z m85 -52 c15 -22 14 -24 -7 -38 -13 -8 -33 -25 -45 -37 -13
-12 -23 -18 -23 -12 0 6 -4 7 -10 4 -5 -3 -10 -2 -10 3 0 14 61 102 70 102 5
0 16 -10 25 -22z m86 -28 c10 -6 19 -20 19 -31 0 -11 -4 -18 -9 -15 -5 3 -14
-1 -21 -9 -13 -16 -39 -10 -36 8 4 23 17 57 22 57 3 0 14 -5 25 -10z m-338
-117 c-3 -7 -9 -11 -13 -8 -5 3 -6 -3 -3 -13 2 -10 -6 -29 -18 -42 -14 -15
-20 -19 -16 -8 3 9 -1 22 -9 28 -19 17 -18 27 6 33 11 3 25 18 31 34 10 26 12
26 19 8 4 -11 5 -26 3 -32z m-1443 -37 c0 -17 -26 -3 -27 14 -2 18 0 18 13 6
8 -8 14 -17 14 -20z m1667 19 c-4 -8 -2 -17 4 -21 7 -4 6 -10 -1 -19 -8 -10
-6 -13 7 -11 10 0 17 -4 16 -10 -1 -6 10 -8 30 -5 26 4 28 6 10 9 -13 2 -23 8
-23 13 0 5 11 6 26 3 18 -5 29 -1 39 12 8 11 15 14 15 8 0 -6 -6 -17 -14 -24
-15 -12 -10 -44 5 -34 5 3 9 0 9 -6 0 -6 -11 -8 -27 -4 l-28 6 25 -22 c24 -21
24 -21 3 -17 -14 3 -20 1 -17 -7 3 -8 -14 -16 -45 -22 -41 -8 -48 -8 -43 4 4
12 1 12 -16 3 -33 -17 -91 -17 -109 2 -22 21 -10 59 33 107 24 26 46 40 67 43
18 2 34 5 36 5 2 1 1 -5 -2 -13z m-215 -37 c-2 -21 -8 -35 -13 -32 -5 3 -9 1
-9 -5 0 -5 6 -12 13 -14 6 -3 3 -6 -8 -6 -12 -1 -27 -7 -34 -13 -10 -11 -11
-10 -6 5 4 9 11 17 16 17 5 0 9 6 9 14 0 12 32 78 36 73 1 -1 -1 -19 -4 -39z
m248 21 c0 -5 -4 -9 -10 -9 -5 0 -10 7 -10 16 0 8 5 12 10 9 6 -3 10 -10 10
-16z m-315 -69 c-3 -5 -10 -10 -16 -10 -5 0 -9 5 -9 10 0 6 7 10 16 10 8 0 12
-4 9 -10z m745 -25 c0 -8 -3 -16 -7 -18 -5 -3 -8 5 -8 18 0 13 3 21 8 18 4 -2
7 -10 7 -18z m-800 -15 c0 -5 -5 -10 -11 -10 -5 0 -7 5 -4 10 3 6 8 10 11 10
2 0 4 -4 4 -10z m898 -22 c13 -17 -1 -52 -27 -70 -12 -8 -18 -18 -14 -21 3 -4
2 -7 -4 -7 -9 0 -22 30 -23 51 0 10 41 59 50 59 4 0 12 -6 18 -12z m90 -71
c16 -18 -2 -41 -27 -34 -14 3 -22 -1 -27 -15 -3 -11 -8 -18 -10 -15 -2 2 3 20
11 40 16 38 35 47 53 24z m-214 -52 c-5 -11 1 -15 21 -15 22 0 25 -3 16 -14
-9 -11 -6 -13 14 -11 14 2 23 -1 20 -6 -6 -8 40 -25 60 -21 6 1 18 -16 29 -37
13 -29 16 -47 10 -72 -4 -19 -7 -37 -6 -41 1 -5 -2 -8 -8 -8 -6 0 -10 -7 -10
-16 0 -8 5 -12 10 -9 6 3 10 1 10 -4 0 -6 -4 -11 -10 -11 -5 0 -10 -5 -10 -11
0 -5 4 -8 9 -5 11 7 21 -17 21 -48 0 -29 -10 -39 -26 -25 -8 6 -21 9 -29 5 -8
-3 -15 0 -15 7 0 7 -5 18 -12 25 -7 7 -19 40 -28 75 l-16 62 -54 5 c-57 5 -80
14 -80 31 0 5 -9 19 -19 30 -19 20 -19 21 2 54 12 19 27 32 34 30 6 -2 13 -1
15 3 2 6 48 40 55 41 1 1 0 -6 -3 -14z m389 -106 c-10 -17 -26 -38 -36 -47
-17 -15 -17 -15 -11 1 3 9 10 17 15 17 5 0 9 5 9 12 0 11 29 48 37 48 2 0 -4
-14 -14 -31z m-169 -4 c-4 -8 -13 -15 -22 -15 -13 0 -12 3 4 15 24 18 25 18
18 0z m336 -51 c0 -8 -4 -14 -10 -14 -5 0 -10 9 -10 21 0 11 5 17 10 14 6 -3
10 -13 10 -21z m-47 -19 c-3 -9 -8 -14 -10 -11 -3 3 -2 9 2 15 9 16 15 13 8
-4z m127 -40 c0 -1 -6 -8 -14 -14 -11 -9 -15 -7 -19 8 -3 14 0 17 14 14 11 -3
19 -7 19 -8z m190 -80 c10 -13 6 -29 -24 -95 -20 -43 -36 -81 -36 -84 0 -2 10
-2 21 1 18 5 20 3 15 -18 -6 -21 -6 -22 4 -6 11 18 13 18 27 -3 11 -15 23 -20
38 -17 17 3 22 0 18 -10 -3 -8 1 -21 9 -31 9 -9 18 -24 21 -32 4 -12 6 -11 6
3 1 9 4 17 7 17 4 0 13 -8 20 -17 13 -17 15 -16 34 7 12 14 32 42 46 63 13 20
29 37 34 37 6 0 9 5 8 11 -4 18 16 21 37 5 18 -13 17 -15 -20 -47 -60 -53 -95
-88 -95 -96 -1 -4 -11 -21 -25 -37 -16 -20 -34 -30 -59 -33 -20 -2 -36 1 -36
6 0 5 -9 11 -20 14 -13 3 -20 0 -20 -9 0 -18 -28 -18 -49 -1 -9 7 -35 20 -59
27 -29 9 -38 16 -30 22 15 9 14 9 -27 14 -16 2 -34 9 -40 17 -14 19 -45 29
-45 15 0 -6 -3 -9 -6 -5 -3 3 -1 14 5 24 6 10 11 14 11 9 0 -5 7 -3 15 4 8 7
12 16 9 21 -3 5 4 9 15 9 12 0 21 7 21 16 0 8 4 13 9 9 11 -6 42 35 35 47 -3
4 2 5 12 1 13 -5 15 -2 10 14 -4 12 1 27 12 39 10 10 19 22 20 27 1 4 8 23 16
42 16 37 36 44 56 20z m91 -77 c7 -12 4 -26 -11 -50 -12 -20 -20 -26 -20 -16
0 11 -6 15 -20 11 -24 -6 -26 3 -5 23 8 9 15 21 15 27 0 7 -8 3 -17 -8 -14
-18 -15 -18 -9 -2 3 10 6 22 6 26 0 14 52 5 61 -11z m54 -38 c-3 -5 1 -10 10
-10 14 0 14 -2 0 -24 -15 -22 -53 -41 -63 -31 -5 5 46 75 54 75 3 0 2 -4 -1
-10z m-107 -44 c-7 -8 -15 -12 -17 -11 -5 6 10 25 20 25 5 0 4 -6 -3 -14z m0
-36 c-9 -14 -14 -16 -20 -7 -6 10 5 20 30 26 1 1 -3 -8 -10 -19z m-331 -13 c7
-11 -23 -37 -44 -37 -13 0 -19 41 -7 52 7 8 43 -2 51 -15z m728 -85 c17 -12
19 -46 2 -39 -11 4 -13 0 -10 -16 4 -18 3 -19 -6 -7 -7 10 -11 11 -11 3 0 -7
-4 -13 -8 -13 -5 0 -8 15 -8 34 1 27 4 32 14 24 9 -8 11 -7 6 6 -6 17 4 21 21
8z m-3270 -68 c19 -8 19 -54 0 -124 -8 -30 -19 -101 -25 -157 -6 -56 -24 -166
-40 -245 -17 -79 -33 -183 -37 -231 -6 -93 -26 -137 -62 -137 -34 0 -43 113
-37 460 6 395 10 437 39 444 26 5 140 -2 162 -10z m389 -3 c3 -5 -2 -71 -10
-147 -9 -77 -18 -157 -20 -179 -19 -183 -27 -242 -44 -320 -11 -49 -22 -116
-26 -148 -4 -47 -9 -58 -22 -55 -25 5 -40 62 -47 184 -4 60 -13 134 -20 164
-8 30 -19 107 -26 170 -10 92 -10 125 0 160 7 25 16 61 20 80 12 55 29 79 64
89 42 12 124 13 131 2z"/>
<path d="M3680 7608 c0 -36 4 -35 14 5 4 16 2 27 -4 27 -5 0 -10 -14 -10 -32z"/>
<path d="M5020 6870 c0 -5 7 -10 16 -10 8 0 12 5 9 10 -3 6 -10 10 -16 10 -5
0 -9 -4 -9 -10z"/>
<path d="M6857 6033 c-4 -3 -7 -11 -7 -17 0 -6 5 -5 12 2 6 6 9 14 7 17 -3 3
-9 2 -12 -2z"/>
<path d="M5285 13059 c4 -63 9 -116 11 -118 2 -2 4 46 4 107 0 69 -4 113 -11
118 -8 4 -9 -26 -4 -107z"/>
<path d="M5650 12884 c0 -20 28 -47 87 -85 38 -23 86 -57 108 -74 22 -18 64
-45 93 -59 44 -23 110 -66 159 -106 6 -5 76 -49 155 -97 139 -85 205 -132 278
-197 20 -17 46 -37 58 -43 20 -12 22 -10 28 13 8 32 -5 74 -26 85 -70 38 -332
200 -445 274 -77 50 -162 104 -190 120 -27 16 -70 43 -95 60 -44 31 -194 115
-205 115 -3 0 -5 -3 -5 -6z"/>
<path d="M4780 11150 c0 -5 5 -10 10 -10 6 0 10 5 10 10 0 6 -4 10 -10 10 -5
0 -10 -4 -10 -10z"/>
<path d="M8967 11153 c25 -5 31 -28 36 -138 3 -57 3 -52 5 29 2 97 2 98 25 93
21 -6 21 -6 3 8 -11 8 -36 14 -55 14 -23 -1 -28 -3 -14 -6z"/>
<path d="M9300 10937 c0 -3 21 -22 47 -43 26 -21 44 -33 40 -27 -9 14 -87 77
-87 70z"/>
<path d="M9076 10767 c66 -50 120 -87 84 -55 -42 35 -139 108 -145 108 -4 0
24 -24 61 -53z"/>
<path d="M8830 10760 c-9 -6 -10 -10 -3 -10 6 0 15 5 18 10 8 12 4 12 -15 0z"/>
<path d="M8760 10730 c-8 -5 -10 -10 -5 -10 6 0 17 5 25 10 8 5 11 10 5 10 -5
0 -17 -5 -25 -10z"/>
<path d="M9590 10696 c0 -2 8 -10 18 -17 15 -13 16 -12 3 4 -13 16 -21 21 -21
13z"/>
<path d="M9630 10661 c0 -5 7 -12 16 -15 14 -5 15 -4 4 9 -14 17 -20 19 -20 6z"/>
<path d="M8970 10537 c-19 -11 -93 -44 -165 -73 -71 -28 -168 -67 -215 -86
-47 -19 -94 -38 -104 -42 -10 -3 -17 -8 -14 -11 6 -7 75 14 132 40 90 41 356
145 371 145 10 0 15 -16 18 -57 l3 -58 2 67 c2 59 4 67 22 70 20 3 20 4 3 14
-14 8 -26 6 -53 -9z"/>
<path d="M9392 10524 c10 -10 20 -16 22 -13 3 3 -5 11 -17 18 -21 13 -21 12
-5 -5z"/>
<path d="M9540 10417 c0 -2 34 -32 75 -66 41 -34 75 -59 75 -55 0 7 1 7 -89
77 -33 27 -61 46 -61 44z"/>
<path d="M8935 10395 c-25 -12 -26 -14 -5 -9 28 7 60 23 45 23 -5 0 -23 -6
-40 -14z"/>
<path d="M8825 10356 c-54 -20 -275 -116 -350 -151 -20 -9 -24 -14 -12 -14 10
-1 68 22 130 50 61 29 154 69 205 89 88 35 117 51 96 49 -5 0 -36 -10 -69 -23z"/>
<path d="M9335 10320 c10 -11 20 -20 23 -20 3 0 -3 9 -13 20 -10 11 -20 20
-23 20 -3 0 3 -9 13 -20z"/>
<path d="M8430 10310 c-8 -5 -10 -10 -5 -10 6 0 17 5 25 10 8 5 11 10 5 10 -5
0 -17 -5 -25 -10z"/>
<path d="M8380 10290 c-9 -6 -10 -10 -3 -10 6 0 15 5 18 10 8 12 4 12 -15 0z"/>
<path d="M9405 10266 c22 -20 44 -36 48 -36 5 0 -4 10 -20 23 -52 42 -68 50
-28 13z"/>
<path d="M9710 10276 c0 -2 8 -10 18 -17 15 -13 16 -12 3 4 -13 16 -21 21 -21
13z"/>
<path d="M6703 10160 c0 -41 2 -58 4 -37 2 20 2 54 0 75 -2 20 -4 3 -4 -38z"/>
<path d="M8992 10180 c0 -19 2 -27 5 -17 2 9 2 25 0 35 -3 9 -5 1 -5 -18z"/>
<path d="M8897 10166 c-62 -22 -108 -46 -62 -33 21 6 35 9 103 27 23 6 42 15
42 20 0 13 -3 12 -83 -14z"/>
<path d="M8740 10108 c-19 -5 -50 -7 -68 -4 -26 4 -33 2 -29 -8 3 -8 1 -18 -5
-24 -11 -11 112 21 139 37 22 13 9 12 -37 -1z"/>
<path d="M9561 10104 c0 -11 3 -14 6 -6 3 7 2 16 -1 19 -3 4 -6 -2 -5 -13z"/>
<path d="M9336 10086 c10 -8 21 -12 24 -10 5 6 -21 24 -34 24 -6 0 -1 -6 10
-14z"/>
<path d="M9370 10070 c0 -5 5 -10 11 -10 5 0 7 5 4 10 -3 6 -8 10 -11 10 -2 0
-4 -4 -4 -10z"/>
<path d="M8490 10010 c-8 -5 -10 -10 -5 -10 6 0 17 5 25 10 8 5 11 10 5 10 -5
0 -17 -5 -25 -10z"/>
<path d="M8365 9964 c-33 -14 -46 -22 -30 -19 32 7 116 43 100 43 -5 1 -37
-11 -70 -24z"/>
<path d="M2941 9916 c2 -1 20 -8 39 -14 32 -11 33 -10 16 3 -16 12 -69 23 -55
11z"/>
<path d="M6703 9870 c0 -25 2 -35 4 -22 2 12 2 32 0 45 -2 12 -4 2 -4 -23z"/>
<path d="M9572 9885 c0 -16 2 -22 5 -12 2 9 2 23 0 30 -3 6 -5 -1 -5 -18z"/>
<path d="M10217 9879 c30 -32 31 -35 15 -46 -14 -11 -13 -11 8 -4 14 4 31 6
38 4 6 -3 12 0 12 6 0 7 -8 15 -17 18 -10 4 -34 18 -53 32 l-35 25 32 -35z"/>
<path d="M8990 9871 c0 -5 3 -17 7 -27 6 -16 7 -16 12 -1 5 15 10 14 50 -4 64
-28 61 -17 -3 14 -60 30 -66 31 -66 18z"/>
<path d="M9120 9811 c0 -4 20 -17 45 -29 25 -12 45 -20 45 -18 0 2 -20 16 -45
29 -25 14 -45 22 -45 18z"/>
<path d="M9765 9766 c27 -25 53 -46 58 -46 11 0 -7 17 -63 58 l-45 33 50 -45z"/>
<path d="M9227 9749 c7 -7 15 -10 18 -7 3 3 -2 9 -12 12 -14 6 -15 5 -6 -5z"/>
<path d="M10095 9750 c4 -6 11 -8 16 -5 14 9 11 15 -7 15 -8 0 -12 -5 -9 -10z"/>
<path d="M8858 9711 c-31 -9 -60 -20 -65 -25 -9 -9 -3 -8 92 23 73 23 52 25
-27 2z"/>
<path d="M9270 9726 c0 -3 9 -10 20 -16 11 -6 20 -8 20 -6 0 3 -9 10 -20 16
-11 6 -20 8 -20 6z"/>
<path d="M2900 9686 c14 -7 29 -10 34 -8 11 6 -20 20 -44 21 -8 0 -4 -5 10
-13z"/>
<path d="M2965 9690 c-19 -8 -19 -9 2 -9 12 -1 25 4 28 9 7 12 -2 12 -30 0z"/>
<path d="M9324 9691 c4 -6 16 -16 28 -22 15 -8 18 -8 14 0 -4 6 -16 16 -28 22
-15 8 -18 8 -14 0z"/>
<path d="M6965 9661 c-90 -38 -154 -70 -137 -71 7 0 50 18 94 40 45 22 88 40
94 40 7 0 16 5 19 10 8 13 11 14 -70 -19z"/>
<path d="M8750 9670 c-8 -5 -10 -10 -5 -10 6 0 17 5 25 10 8 5 11 10 5 10 -5
0 -17 -5 -25 -10z"/>
<path d="M9966 9627 c33 -24 73 -52 89 -62 63 -41 4 14 -65 60 -86 57 -100 58
-24 2z"/>
<path d="M8665 9639 c-22 -10 -29 -16 -16 -13 37 10 88 33 71 33 -8 0 -33 -9
-55 -20z"/>
<path d="M8575 9605 c-16 -8 -23 -14 -15 -14 8 0 26 6 40 14 32 18 15 18 -25
0z"/>
<path d="M8510 9580 c-8 -5 -10 -10 -5 -10 6 0 17 5 25 10 8 5 11 10 5 10 -5
0 -17 -5 -25 -10z"/>
<path d="M4401 9559 c-24 -11 -42 -22 -39 -24 5 -5 88 33 88 40 0 6 3 7 -49
-16z"/>
<path d="M4935 9570 c28 -12 63 -12 70 0 4 6 -12 10 -42 9 -36 0 -43 -3 -28
-9z"/>
<path d="M9571 9564 c0 -11 3 -14 6 -6 3 7 2 16 -1 19 -3 4 -6 -2 -5 -13z"/>
<path d="M9550 9541 c0 -6 5 -13 10 -16 6 -4 8 -15 5 -25 -3 -10 -1 -21 5 -25
5 -3 10 1 10 9 0 22 5 20 48 -11 25 -18 20 -10 -18 25 -59 56 -60 57 -60 43z"/>
<path d="M10083 9485 c0 -33 2 -45 4 -27 2 18 2 45 0 60 -2 15 -4 0 -4 -33z"/>
<path d="M4175 9444 c-93 -46 -174 -89 -180 -95 -5 -6 72 30 173 80 100 50
182 93 182 96 0 7 13 13 -175 -81z"/>
<path d="M9365 9460 c3 -5 11 -10 16 -10 6 0 7 5 4 10 -3 6 -11 10 -16 10 -6
0 -7 -4 -4 -10z"/>
<path d="M9730 9406 c0 -2 20 -16 45 -29 56 -32 59 -26 5 8 -39 24 -50 29 -50
21z"/>
<path d="M9837 9339 c7 -7 15 -10 18 -7 3 3 -2 9 -12 12 -14 6 -15 5 -6 -5z"/>
<path d="M8730 9320 c-12 -8 -11 -10 7 -10 20 0 22 -6 25 -62 l3 -63 5 73 c5
75 -2 87 -40 62z"/>
<path d="M9895 9303 c21 -21 95 -68 95 -60 0 2 -26 21 -57 42 -32 20 -49 28
-38 18z"/>
<path d="M9640 9290 c0 -5 5 -10 11 -10 5 0 7 5 4 10 -3 6 -8 10 -11 10 -2 0
-4 -4 -4 -10z"/>
<path d="M9685 9265 c30 -25 59 -39 51 -26 -4 6 -22 18 -39 27 -30 14 -31 14
-12 -1z"/>
<path d="M8965 9244 l-30 -14 34 3 c19 1 36 8 39 15 5 15 -5 14 -43 -4z"/>
<path d="M8564 8990 c0 -135 2 -190 3 -122 2 67 2 177 0 245 -1 67 -3 12 -3
-123z"/>
<path d="M10031 9211 c20 -9 44 -23 53 -30 9 -7 16 -9 16 -4 0 11 -76 53 -93
52 -7 0 4 -8 24 -18z"/>
<path d="M8362 9048 c2 -164 5 -145 10 55 2 59 0 107 -4 107 -5 0 -7 -73 -6
-162z"/>
<path d="M6604 8990 c0 -113 2 -159 3 -102 2 56 2 148 0 205 -1 56 -3 10 -3
-103z"/>
<path d="M9763 9155 c0 -22 2 -30 4 -17 2 12 2 30 0 40 -3 9 -5 -1 -4 -23z"/>
<path d="M9200 9140 c19 -11 40 -19 45 -19 6 0 -6 8 -25 19 -19 11 -39 19 -45
19 -5 0 6 -8 25 -19z"/>
<path d="M4340 9140 c-29 -9 -178 -79 -169 -80 4 0 26 7 50 15 34 12 44 13 51
3 5 -9 8 -6 8 8 0 22 17 31 75 43 17 3 26 9 20 12 -5 3 -21 3 -35 -1z"/>
<path d="M4043 9110 c-24 -10 -43 -21 -43 -24 0 -6 77 27 87 37 10 11 1 8 -44
-13z"/>
<path d="M10000 9072 c0 -4 18 -17 40 -30 l40 -23 0 -169 0 -170 -27 6 c-16 4
-40 13 -55 20 -15 8 -31 14 -35 14 -12 -1 100 -59 115 -60 10 0 12 41 10 190
l-3 191 -42 19 c-24 10 -43 16 -43 12z"/>
<path d="M10467 9043 c-18 -5 -57 -71 -57 -98 0 -44 80 -81 120 -55 10 6 3 8
-23 3 -48 -7 -77 16 -77 62 0 46 38 79 84 73 20 -2 33 -1 28 3 -11 10 -55 17
-75 12z"/>
<path d="M10980 8960 c190 -3 349 -2 354 3 6 4 -150 6 -345 5 l-354 -2 345 -6z"/>
<path d="M9565 8900 c-4 -6 5 -10 20 -10 14 0 44 -9 65 -20 54 -27 51 -18 -4
14 -47 28 -71 32 -81 16z"/>
<path d="M9751 8827 c2 -1 13 -9 24 -17 19 -14 19 -14 6 3 -7 9 -18 17 -24 17
-6 0 -8 -1 -6 -3z"/>
<path d="M9800 8795 c0 -4 60 -35 69 -35 8 0 -32 26 -51 33 -10 4 -18 5 -18 2z"/>
<path d="M6938 8763 c7 -3 16 -2 19 1 4 3 -2 6 -13 5 -11 0 -14 -3 -6 -6z"/>
<path d="M9890 8746 c0 -2 7 -7 16 -10 8 -3 12 -2 9 4 -6 10 -25 14 -25 6z"/>
<path d="M6601 8724 c0 -11 3 -14 6 -6 3 7 2 16 -1 19 -3 4 -6 -2 -5 -13z"/>
<path d="M4280 8714 c-40 -11 -42 -12 -14 -13 16 -1 39 6 50 14 10 8 17 14 14
13 -3 0 -25 -6 -50 -14z"/>
<path d="M8923 8689 c-18 -5 -33 -12 -33 -14 0 -6 62 6 80 16 13 7 13 8 0 8
-8 -1 -30 -5 -47 -10z"/>
<path d="M9700 8687 c0 -3 12 -12 26 -22 15 -9 23 -12 20 -6 -7 11 -46 35 -46
28z"/>
<path d="M8990 8650 c0 -24 -4 -30 -22 -31 -13 0 -39 -7 -58 -14 l-35 -14 40
5 c22 3 48 8 57 10 12 4 18 -3 21 -23 2 -15 5 0 6 35 0 34 -1 62 -4 62 -3 0
-5 -13 -5 -30z"/>
<path d="M9930 8570 c19 -11 40 -19 45 -19 6 0 -6 8 -25 19 -19 11 -39 19 -45
19 -5 0 6 -8 25 -19z"/>
<path d="M5465 8565 c17 -7 34 -10 40 -7 5 3 -1 9 -15 13 -42 12 -57 8 -25 -6z"/>
<path d="M9762 8520 c0 -19 2 -27 5 -17 2 9 2 25 0 35 -3 9 -5 1 -5 -18z"/>
<path d="M10020 8524 c0 -2 15 -11 33 -20 27 -14 30 -15 19 -2 -11 14 -52 31
-52 22z"/>
<path d="M6973 8390 c0 -47 2 -66 4 -42 2 23 2 61 0 85 -2 23 -4 4 -4 -43z"/>
<path d="M10084 8310 c0 -91 2 -128 3 -82 2 45 2 119 0 165 -1 45 -3 8 -3 -83z"/>
<path d="M9340 8456 c0 -2 7 -7 16 -10 8 -3 12 -2 9 4 -6 10 -25 14 -25 6z"/>
<path d="M9571 8336 c8 -8 119 -55 119 -51 0 7 -98 55 -111 55 -7 0 -10 -2 -8
-4z"/>
<path d="M6597 8228 c-7 -124 -6 -198 4 -198 5 0 9 63 9 140 0 77 -2 140 -4
140 -2 0 -6 -37 -9 -82z"/>
<path d="M9735 8260 c99 -46 158 -70 162 -67 2 2 -25 16 -59 31 -35 15 -77 34
-95 42 -17 8 -35 14 -40 14 -4 -1 10 -9 32 -20z"/>
<path d="M2924 8090 c0 -80 2 -112 3 -72 2 39 2 105 0 145 -1 39 -3 7 -3 -73z"/>
<path d="M5293 8185 c0 -22 2 -30 4 -17 2 12 2 30 0 40 -3 9 -5 -1 -4 -23z"/>
<path d="M9990 8143 c19 -9 52 -24 72 -33 21 -10 40 -15 43 -12 3 4 -27 19
-67 34 -80 31 -103 36 -48 11z"/>
<path d="M9625 8143 c13 -12 215 -105 310 -143 77 -31 124 -56 137 -75 4 -5 8
0 8 11 0 17 -12 26 -62 44 -66 24 -159 63 -268 113 -101 46 -136 60 -125 50z"/>
<path d="M5425 8131 c31 -9 102 -14 94 -7 -2 2 -31 6 -64 9 -39 4 -50 3 -30
-2z"/>
<path d="M6800 8000 c0 -5 5 -10 11 -10 5 0 7 5 4 10 -3 6 -8 10 -11 10 -2 0
-4 -4 -4 -10z"/>
<path d="M6640 7951 c0 -5 -3 -16 -6 -24 -6 -18 84 -106 127 -125 17 -7 40
-22 52 -32 11 -11 26 -20 33 -20 14 0 43 -15 114 -61 30 -20 76 -45 101 -56
26 -12 105 -60 177 -107 72 -47 133 -86 136 -86 3 0 22 -12 43 -26 21 -14 73
-43 115 -65 68 -34 215 -123 228 -138 8 -10 69 -51 75 -51 3 0 24 -13 47 -30
22 -16 45 -30 51 -30 5 0 46 -22 91 -49 103 -61 161 -91 180 -91 8 0 21 -6 28
-12 25 -24 139 -98 150 -98 19 0 158 -91 158 -103 1 -15 63 -55 94 -61 33 -6
66 -28 66 -44 0 -8 6 -12 14 -9 10 4 13 1 10 -8 -6 -14 53 -58 66 -50 4 3 10
22 14 44 3 22 8 46 12 54 3 10 -23 31 -88 69 -51 31 -109 65 -128 76 -19 12
-64 35 -100 53 -61 30 -332 185 -410 234 -19 12 -66 39 -105 60 -38 21 -92 53
-120 70 -27 18 -104 62 -170 100 -66 37 -156 91 -200 120 -44 28 -96 61 -115
73 -96 57 -254 149 -325 189 -44 25 -124 74 -178 109 -111 73 -237 139 -237
125z"/>
<path d="M10081 7884 c0 -11 3 -14 6 -6 3 7 2 16 -1 19 -3 4 -6 -2 -5 -13z"/>
<path d="M5465 7680 c27 -12 35 -12 35 0 0 6 -12 10 -27 9 -25 0 -26 -1 -8 -9z"/>
<path d="M7603 7545 c0 -38 2 -53 4 -32 2 20 2 52 0 70 -2 17 -4 1 -4 -38z"/>
<path d="M8248 7383 c6 -2 18 -2 25 0 6 3 1 5 -13 5 -14 0 -19 -2 -12 -5z"/>
<path d="M8178 7373 c12 -2 30 -2 40 0 9 3 -1 5 -23 4 -22 0 -30 -2 -17 -4z"/>
<path d="M8093 7363 c9 -2 23 -2 30 0 6 3 -1 5 -18 5 -16 0 -22 -2 -12 -5z"/>
<path d="M8363 7090 c0 -30 2 -43 4 -27 2 15 2 39 0 55 -2 15 -4 2 -4 -28z"/>
<path d="M8482 6922 c128 -73 199 -116 268 -161 l75 -48 11 -64 c11 -60 12
-62 15 -24 2 25 5 8 9 -45 l6 -85 2 103 c1 66 -2 102 -9 102 -5 0 -8 4 -5 9 6
10 -46 44 -160 107 -38 20 -94 53 -124 73 -59 38 -106 61 -124 61 -6 0 10 -13
36 -28z"/>
<path d="M6223 6890 c0 -25 2 -35 4 -22 2 12 2 32 0 45 -2 12 -4 2 -4 -23z"/>
<path d="M6163 6755 c0 -44 2 -61 4 -37 2 23 2 59 0 80 -2 20 -4 1 -4 -43z"/>
<path d="M6448 6663 c29 -2 74 -2 100 0 26 2 2 3 -53 3 -55 0 -76 -1 -47 -3z"/>
<path d="M9136 6575 c-3 -9 -5 -53 -4 -98 l1 -82 7 95 c8 98 7 113 -4 85z"/>
<path d="M5177 6023 c18 -2 50 -2 70 0 21 2 7 4 -32 4 -38 0 -55 -2 -38 -4z"/>
<path d="M5068 6013 c7 -3 16 -2 19 1 4 3 -2 6 -13 5 -11 0 -14 -3 -6 -6z"/>
<path d="M5658 5903 c39 -2 105 -2 145 0 39 1 7 3 -73 3 -80 0 -112 -2 -72 -3z"/>
<path d="M9338 4583 c34 -2 90 -2 125 0 34 2 6 3 -63 3 -69 0 -97 -1 -62 -3z"/>
<path d="M2634 4019 c-8 -14 -38 -319 -31 -325 4 -4 43 5 87 20 100 33 247 56
358 56 l83 0 -3 -572 -3 -573 -37 -77 c-31 -66 -34 -78 -20 -79 59 -2 458 3
461 7 3 2 -8 34 -23 72 -39 94 -43 170 -40 732 l3 485 98 3 c136 4 243 -11
307 -42 29 -14 59 -26 66 -26 10 0 12 29 7 145 -3 79 -10 152 -15 160 -7 14
-77 16 -650 19 -353 2 -645 0 -648 -5z"/>
<path d="M4151 4021 c-12 -8 -10 -20 15 -73 l29 -63 3 -577 c2 -341 -1 -607
-7 -649 -5 -40 -21 -92 -36 -121 -14 -27 -24 -56 -21 -63 4 -11 52 -13 236
-12 205 1 231 3 226 16 -2 9 -17 45 -32 81 -27 63 -28 71 -32 292 -2 125 -1
239 2 253 l6 25 298 -2 297 -3 0 -250 0 -250 -28 -65 c-16 -36 -30 -70 -33
-77 -4 -9 52 -12 223 -15 125 -2 234 -1 240 2 9 4 4 24 -20 70 l-32 65 -3 632
-3 633 29 74 29 74 -206 4 c-113 2 -216 2 -228 0 l-22 -4 25 -56 c14 -31 29
-85 34 -121 10 -71 13 -383 4 -417 -5 -20 -12 -21 -292 -27 -235 -5 -290 -3
-301 8 -11 11 -13 57 -12 237 2 207 4 228 27 296 13 40 24 77 24 82 0 13 -419
13 -439 1z"/>
<path d="M5823 4022 c-13 -2 -23 -5 -23 -7 0 -2 11 -27 25 -57 l25 -53 0 -642
0 -642 -35 -67 c-19 -37 -35 -73 -35 -80 0 -11 46 -14 250 -14 169 0 250 3
250 11 0 5 -16 31 -35 56 -19 25 -38 62 -42 82 -4 20 -8 124 -8 231 l0 195 81
3 c114 4 103 15 299 -288 101 -155 201 -262 262 -279 21 -6 109 -11 195 -11
129 0 159 3 172 16 9 8 16 18 16 22 0 4 -24 24 -53 44 -121 84 -221 193 -336
367 -71 107 -91 144 -91 165 0 8 24 28 54 44 81 46 171 134 204 202 41 82 59
208 43 298 -37 205 -205 349 -456 391 -63 11 -703 21 -762 13z m679 -251 c64
-20 128 -72 159 -130 37 -68 41 -169 9 -230 -27 -53 -90 -105 -152 -125 -56
-18 -249 -33 -290 -23 l-26 7 -4 242 c-3 144 -1 251 5 262 8 17 19 18 136 13
69 -3 143 -10 163 -16z"/>
<path d="M8835 4021 c-2 -2 8 -27 23 -55 l27 -51 3 -625 c4 -664 2 -698 -44
-776 -13 -23 -20 -44 -17 -48 3 -3 246 -6 538 -6 l532 0 26 108 c39 160 53
250 41 262 -8 8 -33 -1 -85 -29 -41 -22 -110 -52 -154 -67 -73 -24 -98 -27
-277 -32 -163 -4 -198 -2 -203 9 -3 8 -6 106 -8 219 l-2 205 185 -1 c108 0
210 -6 244 -13 49 -11 60 -11 67 1 11 17 11 289 0 306 -6 11 -17 8 -52 -10
-42 -22 -55 -23 -239 -23 l-195 0 0 190 0 190 195 3 c225 3 322 -7 402 -42 32
-14 59 -22 61 -18 3 4 2 72 -2 152 l-6 145 -528 5 c-291 3 -530 3 -532 1z"/>
<path d="M10545 4020 c-3 -5 6 -38 22 -72 l28 -63 0 -610 c0 -643 -2 -668 -46
-757 -11 -21 -19 -42 -19 -48 0 -7 167 -10 520 -10 484 0 520 1 529 18 5 9 21
77 35 150 26 130 33 212 19 212 -4 0 -42 -18 -86 -41 -114 -59 -239 -87 -427
-95 -134 -6 -157 -5 -168 9 -11 13 -13 130 -10 599 l3 584 33 62 c17 34 32 64
32 67 0 10 -459 5 -465 -5z"/>
<path d="M7420 4009 c0 -6 12 -31 28 -57 l27 -47 0 -645 0 -645 -32 -69 c-18
-37 -33 -72 -33 -77 0 -5 228 -9 531 -9 l530 0 14 33 c17 42 65 272 65 314 0
38 -11 41 -48 15 -49 -33 -169 -82 -238 -98 -38 -8 -150 -17 -248 -21 -167 -6
-180 -5 -193 12 -14 21 -19 248 -6 365 l6 62 185 -7 c102 -4 207 -14 235 -21
28 -7 54 -11 59 -8 10 6 11 321 0 327 -4 3 -25 -4 -47 -16 -35 -18 -62 -21
-223 -25 -121 -2 -187 0 -196 7 -9 8 -12 52 -10 183 1 95 2 179 3 187 1 12 39
13 246 8 252 -7 264 -9 382 -58 18 -7 35 -10 39 -6 4 3 3 73 -2 154 l-9 148
-532 3 c-377 1 -533 -1 -533 -9z"/>
<path d="M3650 1635 l0 -266 58 3 57 3 3 128 c1 70 6 127 11 127 4 0 33 -26
63 -57 94 -99 227 -223 238 -223 7 0 9 87 8 268 l-3 267 -57 3 -58 3 0 -146 0
-147 -149 151 c-82 83 -154 151 -160 151 -8 0 -11 -84 -11 -265z"/>
<path d="M5056 1893 c-3 -3 -6 -123 -6 -265 l0 -258 60 0 60 0 0 135 c0 74 2
135 4 135 2 0 69 -66 149 -147 97 -98 149 -145 156 -138 6 6 8 104 4 273 l-6
262 -54 0 -53 0 0 -140 c0 -77 -2 -140 -5 -140 -2 0 -64 61 -137 136 -132 136
-160 159 -172 147z"/>
<path d="M7137 1893 c-4 -3 -7 -123 -7 -265 l0 -258 60 0 60 0 0 135 c0 74 2
135 5 135 2 0 69 -65 147 -145 79 -80 149 -145 156 -145 11 0 13 45 12 228 -1
125 -5 246 -7 270 l-5 42 -54 0 -54 0 0 -140 c0 -133 -7 -162 -28 -125 -11 21
-262 275 -271 275 -4 0 -11 -3 -14 -7z"/>
<path d="M2590 1630 l0 -260 170 0 170 0 0 50 0 50 -79 0 c-43 0 -93 3 -110 6
l-31 7 0 203 0 204 -60 0 -60 0 0 -260z"/>
<path d="M3131 1864 c-148 -74 -187 -291 -76 -421 48 -56 109 -83 187 -83 98
0 134 15 199 79 49 50 58 65 69 115 24 115 -10 224 -88 283 -81 61 -200 72
-291 27z m200 -105 c41 -29 59 -69 59 -129 0 -102 -65 -169 -152 -157 -79 11
-118 62 -118 157 0 129 114 198 211 129z"/>
<path d="M4376 1870 c-60 -24 -95 -56 -131 -121 -91 -169 14 -370 206 -392 52
-6 133 5 182 24 l27 11 0 120 0 119 -61 -3 -62 -3 -1 -80 -1 -80 -48 3 c-62 3
-104 27 -128 74 -39 76 -14 183 51 221 36 21 125 22 165 1 28 -14 30 -14 47 8
21 27 32 63 24 76 -12 19 -100 42 -160 42 -35 -1 -82 -9 -110 -20z"/>
<path d="M4797 1883 c-4 -3 -7 -120 -7 -260 l0 -253 60 0 60 0 0 260 0 260
-53 0 c-30 0 -57 -3 -60 -7z"/>
<path d="M5764 1866 c-131 -61 -187 -221 -126 -358 25 -57 66 -96 131 -126 48
-22 62 -24 140 -19 47 3 101 11 119 18 l32 13 0 118 0 118 -60 0 -60 0 0 -80
0 -80 -52 0 c-37 0 -61 6 -85 23 -89 60 -81 227 13 272 41 19 146 17 167 -4
17 -17 22 -14 52 31 l28 42 -22 18 c-56 44 -196 52 -277 14z"/>
<path d="M6420 1630 l0 -260 176 0 175 0 -3 53 -3 52 -107 3 -108 3 0 158 c0
87 -3 179 -6 205 l-7 46 -58 0 -59 0 0 -260z"/>
<path d="M6870 1630 l0 -261 63 3 c34 2 61 6 60 11 -2 4 -3 120 -3 257 l0 250
-60 0 -60 0 0 -260z"/>
<path d="M7708 1875 c-2 -5 -2 -121 0 -257 l3 -248 175 0 174 0 0 55 0 54
-117 3 -116 3 0 45 0 45 101 3 102 3 0 49 0 49 -102 3 -101 3 0 45 0 45 114 5
114 5 3 43 c2 28 -1 44 -10 47 -29 9 -338 10 -340 0z"/>
<path d="M8285 1875 c-28 -11 -49 -29 -69 -58 -24 -36 -27 -50 -23 -96 3 -48
9 -59 40 -86 19 -17 64 -41 100 -53 35 -13 74 -30 86 -38 27 -19 27 -50 -1
-65 -32 -17 -135 -5 -169 20 -16 12 -32 21 -36 21 -9 0 -33 -70 -33 -94 0 -21
87 -59 147 -64 124 -10 210 34 233 119 26 95 -32 164 -171 203 -65 18 -84 36
-75 70 4 17 15 26 36 31 33 7 126 -11 136 -26 11 -19 31 -8 47 26 9 20 17 42
17 49 0 40 -189 69 -265 41z"/>
<path d="M8894 1876 c-3 -8 -4 -31 -2 -52 l3 -39 70 -5 70 -5 0 -190 c1 -104
2 -196 3 -202 1 -9 22 -13 61 -13 l59 0 -5 88 c-3 49 -2 141 2 205 l7 117 70
0 69 0 -3 53 -3 52 -198 3 c-163 2 -198 0 -203 -12z"/>
<path d="M9512 1864 c-148 -74 -188 -266 -86 -406 94 -127 307 -134 413 -13
116 132 80 344 -70 419 -75 37 -183 37 -257 0z m159 -84 c19 -5 48 -24 64 -40
25 -27 30 -40 33 -99 6 -108 -42 -171 -132 -171 -84 0 -136 64 -136 168 0 66
18 99 74 133 35 22 47 23 97 9z"/>
<path d="M10287 1883 c-4 -3 -7 -120 -7 -260 l0 -253 178 2 177 3 0 50 0 50
-115 3 -115 3 0 192 c0 106 -2 198 -4 205 -3 13 -102 18 -114 5z"/>
<path d="M10730 1630 l0 -260 60 0 60 0 0 260 0 260 -60 0 -60 0 0 -260z"/>
<path d="M10970 1875 c0 -9 9 -34 20 -55 11 -22 41 -88 66 -147 41 -96 64
-148 121 -271 36 -77 73 -59 126 63 74 170 120 273 152 340 18 39 31 73 29 76
-2 4 -31 6 -65 5 l-61 -1 -37 -86 c-21 -47 -48 -115 -61 -150 -29 -81 -35 -87
-48 -52 -44 118 -79 205 -99 246 l-23 47 -60 0 c-47 0 -60 -3 -60 -15z"/>
<path d="M11584 1881 c-2 -2 -4 -118 -4 -256 l0 -252 53 -7 c67 -8 280 -8 301
0 12 4 16 20 16 55 l0 49 -120 0 -120 0 0 55 0 55 100 0 100 0 0 50 0 50 -100
0 -100 0 0 50 0 50 115 0 115 0 0 50 0 49 -176 3 c-97 2 -178 1 -180 -1z"/>
</g>
</svg>
